<?xml version="1.0" standalone="no"?>
<!DOCTYPE svg PUBLIC "-//W3C//DTD SVG 20010904//EN"
 "http://www.w3.org/TR/2001/REC-SVG-20010904/DTD/svg10.dtd">
<svg version="1.0" xmlns="http://www.w3.org/2000/svg"
 width="1024.000000pt" height="1024.000000pt" viewBox="0 0 1024.000000 1024.000000"
 preserveAspectRatio="xMidYMid meet">

<g transform="translate(0.000000,1024.000000) scale(0.100000,-0.100000)"
fill="#000000" stroke="none">
<path d="M2835 7954 c-7 -3 -9 -605 -7 -1786 2 -1583 4 -1784 17 -1798 14 -13
97 -15 665 -16 580 0 649 1 652 15 2 9 3 386 2 839 -1 452 1 822 5 822 4 0
137 -127 296 -282 160 -154 360 -345 445 -423 85 -78 208 -197 272 -263 l117
-122 198 193 c109 105 306 298 438 428 132 130 284 277 338 326 53 49 104 99
113 111 8 12 22 22 30 22 12 0 14 -113 14 -829 l0 -830 568 -3 c312 -2 612 -1
667 2 l100 5 3 1784 c1 1310 -1 1787 -9 1797 -9 12 -124 14 -648 14 l-636 -1
-565 -562 c-311 -309 -576 -575 -589 -592 -17 -23 -24 -26 -27 -15 -3 8 -266
275 -584 593 l-578 577 -644 -1 c-354 0 -647 -2 -653 -5z m1544 -806 c234
-232 541 -537 681 -676 148 -149 256 -249 258 -241 5 20 721 730 1012 1005
135 127 263 252 283 278 l38 46 355 0 354 0 0 -1384 c0 -761 3 -1391 6 -1400
5 -13 -26 -15 -263 -18 -147 -2 -270 -1 -273 0 -3 2 -4 310 -3 685 3 924 4
1489 4 1505 -2 35 -52 -4 -211 -165 -96 -98 -428 -425 -737 -727 -310 -302
-563 -553 -563 -558 0 -4 -4 -8 -9 -8 -11 0 -260 241 -741 715 -184 182 -389
380 -455 440 -66 61 -144 137 -175 170 -100 110 -140 145 -163 145 l-22 0 3
-1098 3 -1099 -152 -6 c-84 -4 -203 -7 -266 -7 l-113 0 0 1383 c0 760 3 1392
6 1404 l6 23 342 3 c187 1 347 3 355 5 7 1 205 -188 440 -420z"/>
<path d="M4212 3867 c-40 -19 -65 -82 -66 -167 l-1 -75 -47 3 c-45 4 -47 2
-53 -25 -3 -15 -10 -43 -14 -60 -11 -40 -5 -45 59 -45 41 1 49 -2 54 -21 3
-11 0 -94 -6 -184 -6 -89 -9 -165 -6 -168 3 -4 41 -7 84 -8 l79 -2 1 181 c1
100 4 186 8 192 3 5 23 13 43 17 47 8 53 17 53 77 0 52 -3 54 -80 62 -30 3
-35 7 -31 27 6 44 19 56 67 62 53 6 71 20 80 63 7 37 -20 68 -68 78 -47 9
-130 6 -156 -7z"/>
<path d="M2848 3860 c-1 -3 -2 -173 -2 -377 l-1 -373 104 0 c103 0 103 0 96
23 -9 31 -19 384 -10 375 4 -4 30 -47 59 -96 83 -144 150 -251 159 -252 4 0 7
5 7 11 0 6 17 38 38 70 65 103 175 269 177 266 1 -1 -1 -63 -5 -137 -3 -74 -4
-163 -2 -197 l4 -63 96 0 95 0 -6 372 c-4 204 -8 373 -10 375 -2 1 -41 5 -88
9 l-84 6 -22 -45 c-11 -25 -52 -91 -90 -147 -37 -56 -77 -117 -88 -136 -11
-19 -23 -34 -26 -34 -10 0 -164 221 -203 291 l-35 63 -81 1 c-44 0 -81 -2 -82
-5z"/>
<path d="M5844 3488 l0 -378 187 0 c242 0 286 12 375 100 149 147 173 307 72
472 -54 87 -139 145 -248 167 -30 6 -129 12 -220 14 l-165 2 -1 -377z m358
181 c144 -38 187 -237 72 -338 -49 -43 -106 -61 -197 -61 l-52 0 0 211 0 211
70 -7 c38 -3 87 -11 107 -16z"/>
<path d="M4707 3649 c-88 -21 -175 -110 -203 -207 -25 -84 -2 -160 74 -244 49
-55 102 -78 180 -78 81 0 120 20 198 101 73 76 92 132 74 213 -14 64 -31 94
-77 138 -66 64 -168 96 -246 77z m129 -183 c51 -51 46 -104 -14 -168 -31 -34
-73 -36 -119 -8 -69 41 -61 171 11 200 47 19 87 11 122 -24z"/>
<path d="M6752 3639 c-86 -43 -162 -163 -162 -254 0 -62 43 -156 91 -202 80
-75 199 -102 280 -65 46 22 139 101 139 119 0 6 -14 16 -32 22 -17 6 -39 18
-48 26 -15 14 -21 13 -56 -11 -51 -35 -100 -40 -143 -16 -19 10 -40 26 -45 36
-18 27 10 36 115 36 53 0 131 3 174 7 l77 6 -6 50 c-12 102 -80 198 -175 243
-57 28 -157 30 -209 3z m151 -130 c20 -9 57 -56 57 -71 0 -3 -43 -4 -95 -4
-79 1 -95 4 -95 17 0 50 77 84 133 58z"/>
<path d="M7228 3653 l-77 -4 34 -92 c18 -51 61 -153 95 -227 35 -74 68 -153
74 -175 l12 -40 76 -3 76 -3 7 38 c4 20 15 53 25 73 10 19 25 59 34 88 8 30
25 69 36 87 11 18 27 55 35 82 8 26 29 73 48 104 l33 56 -82 9 -83 9 -49 -125
c-27 -69 -53 -140 -57 -157 -10 -48 -22 -40 -41 25 -9 31 -33 95 -54 142 -21
47 -40 93 -43 103 -4 9 -10 16 -14 15 -4 -1 -43 -4 -85 -5z"/>
<path d="M5160 3385 l0 -265 80 0 80 0 0 151 c0 84 5 159 10 170 15 27 66 51
103 47 l32 -3 9 67 c12 88 7 98 -49 98 -38 0 -51 -6 -85 -36 l-40 -36 0 30 c0
26 -4 30 -37 36 -21 3 -53 6 -70 6 l-33 0 0 -265z"/>
<path d="M5237 2672 c-44 -45 -54 -85 -33 -135 15 -38 67 -77 101 -77 49 0
115 71 115 125 0 61 -63 125 -122 125 -14 0 -39 -15 -61 -38z"/>
<path d="M5869 2661 c-41 -41 -49 -73 -28 -114 41 -80 97 -89 159 -27 54 54
54 88 1 141 -26 26 -48 39 -66 39 -18 0 -40 -13 -66 -39z"/>
<path d="M7533 2693 c-28 -6 -93 -77 -93 -103 0 -59 51 -119 113 -134 73 -17
167 50 167 119 0 41 -40 92 -87 111 -32 14 -57 15 -100 7z"/>
<path d="M2920 2671 c-19 -10 -43 -33 -54 -50 -16 -28 -17 -38 -7 -71 16 -54
62 -90 113 -90 69 0 138 56 138 111 0 50 -79 119 -137 119 -10 0 -34 -8 -53
-19z"/>
<path d="M4592 2662 c-38 -35 -48 -73 -32 -113 28 -66 97 -79 155 -28 43 38
52 67 31 107 -35 67 -103 82 -154 34z"/>
<path d="M3953 2660 c-40 -24 -67 -73 -58 -107 10 -42 49 -73 93 -73 29 0 46
8 75 34 50 45 50 85 3 132 -39 39 -67 43 -113 14z"/>
<path d="M6523 2660 c-56 -34 -68 -82 -34 -134 22 -34 56 -55 87 -56 30 0 102
55 110 84 8 32 -20 82 -59 106 -40 25 -64 25 -104 0z"/>
</g>
</svg>
